<svg width="254" height="54" viewBox="0 0 254 54" fill="none" xmlns="http://www.w3.org/2000/svg">
<path d="M127.182 10.9714L129.151 16.0233L131.121 10.9714H132.151V17.17H131.364V14.7526L131.424 12.1492L129.424 17.17H128.818L126.818 12.1492L126.909 14.7526V17.17H126.121V10.9714C126.121 10.9714 127.182 10.9714 127.182 10.9714Z" fill="white"/>
<path d="M138.303 14.3187H135.666V16.5192H138.727V17.2011H134.848V11.0024H138.666V11.6843H135.666V13.6369H138.303V14.3187Z" fill="white"/>
<path d="M146.454 18.6885H145.667V17.1698H141.303V18.6885H140.515V16.4879H141C141.273 16.178 141.455 15.7751 141.636 15.2792C141.788 14.7833 141.879 14.2255 141.939 13.6056L142.061 10.9402H145.697V16.457H146.485L146.454 18.6885ZM141.909 16.5189H144.879V11.653H142.818L142.727 13.4816C142.697 14.1945 142.606 14.8143 142.455 15.3102C142.303 15.8061 142.121 16.209 141.909 16.5189Z" fill="white"/>
<path d="M152.939 14.3507H152.303V17.171H151.515V14.3507H150.818L149.091 17.171H148.091L150.121 13.9168L148.242 10.9724H149.182L150.788 13.6688H151.485V10.9724H152.273V13.6688H152.939L154.545 10.9724H155.485L153.606 13.8858L155.636 17.171H154.636L152.939 14.3507Z" fill="white"/>
<path d="M162.334 10.9714V17.17H161.546V11.6533H159.364L159.243 14.1017C159.212 14.9385 159.121 15.5584 159 15.9613C158.879 16.3642 158.697 16.6742 158.455 16.8601C158.212 17.0461 157.909 17.17 157.485 17.17H157.212V16.4882H157.364C157.637 16.4572 157.818 16.3952 157.97 16.2403C158.121 16.0853 158.212 15.8373 158.273 15.5274C158.334 15.1865 158.394 14.6906 158.425 14.0088L158.546 11.0024L162.334 10.9714Z" fill="white"/>
<path d="M165.94 17.17H165.152V10.9714H165.94V17.17Z" fill="white"/>
<path d="M173.121 15.2172C173.061 15.8681 172.818 16.364 172.424 16.7359C172.03 17.0768 171.485 17.2628 170.849 17.2628C170.121 17.2628 169.545 17.0148 169.121 16.4879C168.697 15.9611 168.485 15.2482 168.485 14.3804V13.7915C168.485 13.2027 168.576 12.7068 168.788 12.2729C169 11.839 169.273 11.4981 169.636 11.2811C170 11.0332 170.424 10.9402 170.909 10.9402C171.545 10.9402 172.061 11.1261 172.455 11.4981C172.849 11.87 173.061 12.3659 173.121 13.0167H172.303C172.242 12.5208 172.091 12.1489 171.849 11.932C171.606 11.715 171.303 11.591 170.879 11.591C170.364 11.591 169.97 11.777 169.667 12.1799C169.364 12.5518 169.242 13.1097 169.242 13.8225V14.4114C169.242 15.0933 169.394 15.6201 169.667 16.023C169.939 16.426 170.333 16.6119 170.818 16.6119C171.273 16.6119 171.606 16.5189 171.849 16.302C172.091 16.085 172.242 15.7441 172.333 15.2172H173.121Z" fill="white"/>
<path d="M127.727 26.6536H126.97V29.443H126.182V23.2444H126.97V25.9718H127.606L129.727 23.2444H130.727L128.424 26.2507L130.909 29.443H129.939L127.727 26.6536Z" fill="white"/>
<path d="M133.697 27.0255V29.443H132.909V23.2444H135.151C135.818 23.2444 136.333 23.4303 136.697 23.7713C137.06 24.1122 137.272 24.5771 137.272 25.135C137.272 25.7238 137.091 26.1887 136.727 26.5296C136.363 26.8396 135.818 27.0255 135.151 27.0255H133.697ZM133.697 26.3437H135.121C135.545 26.3437 135.878 26.2507 136.091 26.0338C136.333 25.8168 136.424 25.5379 136.424 25.135C136.424 24.763 136.303 24.4841 136.091 24.2362C135.848 24.0192 135.545 23.8952 135.151 23.8952H133.666L133.697 26.3437Z" fill="white"/>
<path d="M143.364 23.2444H144.151V29.443H143.364V24.6701L140.394 29.443H139.576V23.2444H140.394V28.0173L143.364 23.2444Z" fill="white"/>
<path d="M147.939 23.2444L149.909 28.2963L151.878 23.2444H152.909V29.443H152.121V27.0255L152.181 24.4221L150.242 29.443H149.636L147.636 24.4221L147.727 27.0255V29.443H146.939V23.2444H147.939Z" fill="white"/>
<path d="M160.091 27.4592C160.03 28.11 159.788 28.6059 159.394 28.9778C159 29.3188 158.455 29.5047 157.818 29.5047C157.091 29.5047 156.515 29.2568 156.091 28.7299C155.667 28.203 155.455 27.4902 155.455 26.6224V26.0335C155.455 25.4446 155.545 24.9487 155.758 24.5148C155.97 24.0809 156.242 23.74 156.606 23.5231C156.97 23.2751 157.394 23.1821 157.879 23.1821C158.515 23.1821 159.03 23.3681 159.424 23.74C159.818 24.1119 160.03 24.6078 160.091 25.2587H159.273C159.212 24.7628 159.061 24.3909 158.818 24.1739C158.576 23.957 158.273 23.833 157.849 23.833C157.333 23.833 156.939 24.0189 156.636 24.4219C156.333 24.7938 156.212 25.3516 156.212 26.0645V26.6534C156.212 27.3352 156.364 27.8621 156.636 28.265C156.909 28.6679 157.303 28.8539 157.788 28.8539C158.242 28.8539 158.576 28.7609 158.818 28.5439C159.061 28.327 159.212 27.9861 159.303 27.4592H160.091Z" fill="white"/>
<path d="M163.243 25.7548H164.758C165.394 25.7548 165.879 25.9408 166.243 26.2507C166.606 26.5606 166.788 27.0255 166.788 27.5834C166.788 28.1413 166.606 28.5752 166.243 28.9161C165.879 29.257 165.394 29.412 164.788 29.443H162.424V23.2444H163.212V25.7548H163.243ZM163.243 26.4367V28.7612H164.697C165.091 28.7612 165.394 28.6682 165.636 28.4512C165.849 28.2343 165.97 27.9553 165.97 27.5834C165.97 27.2425 165.879 26.9636 165.636 26.7466C165.424 26.5297 165.121 26.4367 164.727 26.4367H163.243Z" fill="white"/>
<path d="M170.667 26.6551H169.939V29.4445H169.151V23.2458H169.939V25.9732H170.576L172.697 23.2458H173.697L171.394 26.2522L173.879 29.4445H172.909L170.667 26.6551Z" fill="white"/>
<path d="M180.364 26.5294C180.364 27.1492 180.273 27.6761 180.061 28.11C179.848 28.5749 179.576 28.9158 179.212 29.1328C178.848 29.3807 178.424 29.5047 177.939 29.5047C177.455 29.5047 177.03 29.3807 176.667 29.1328C176.303 28.8848 176 28.5439 175.818 28.11C175.606 27.6761 175.515 27.1492 175.515 26.5603V26.1264C175.515 25.5376 175.606 25.0107 175.818 24.5458C176.03 24.0809 176.303 23.74 176.667 23.492C177.03 23.2441 177.455 23.1201 177.939 23.1201C178.424 23.1201 178.848 23.2441 179.212 23.492C179.576 23.74 179.879 24.0809 180.061 24.5458C180.273 25.0107 180.364 25.5376 180.364 26.1264V26.5294ZM179.576 26.1264C179.576 25.3826 179.424 24.8247 179.151 24.4218C178.879 24.0189 178.455 23.833 177.939 23.833C177.424 23.833 177.03 24.0189 176.758 24.4218C176.485 24.8247 176.333 25.3516 176.303 26.0645V26.5294C176.303 27.2422 176.455 27.8001 176.727 28.203C177 28.6059 177.424 28.8228 177.939 28.8228C178.455 28.8228 178.848 28.6369 179.151 28.234C179.424 27.8621 179.576 27.3042 179.576 26.5913V26.1264Z" fill="white"/>
<path d="M186.909 23.8967H184.969V29.4445H184.182V23.8967H182.242V23.2458H186.939L186.909 23.8967Z" fill="white"/>
<path d="M192.121 27.8013H189.576L189 29.413H188.182L190.485 23.2144H191.182L193.515 29.413H192.697L192.121 27.8013ZM189.818 27.1505H191.879L190.848 24.2371L189.818 27.1505Z" fill="white"/>
<path d="M199.243 23.8967H197.303V29.4445H196.516V23.8967H194.576V23.2458H199.273L199.243 23.8967Z" fill="white"/>
<path d="M204.455 27.8004H201.909L201.333 29.412H200.515L202.818 23.2134H203.515L205.848 29.412H205.03L204.455 27.8004ZM202.151 27.1495H204.212L203.182 24.2361L202.151 27.1495Z" fill="white"/>
<path d="M208.727 27.0255V29.443H207.939V23.2444H210.182C210.849 23.2444 211.364 23.4303 211.727 23.7713C212.091 24.1122 212.303 24.5771 212.303 25.135C212.303 25.7238 212.121 26.1887 211.758 26.5296C211.394 26.8396 210.849 27.0255 210.182 27.0255H208.727ZM208.727 26.3437H210.152C210.576 26.3437 210.909 26.2507 211.121 26.0338C211.364 25.8168 211.455 25.5379 211.455 25.135C211.455 24.763 211.333 24.4841 211.121 24.2362C210.879 24.0192 210.576 23.8952 210.182 23.8952H208.697L208.727 26.3437Z" fill="white"/>
<path d="M219.061 27.4592C219 28.11 218.758 28.6059 218.364 28.9778C217.97 29.3188 217.424 29.5047 216.788 29.5047C216.061 29.5047 215.485 29.2568 215.061 28.7299C214.636 28.203 214.424 27.4902 214.424 26.6224V26.0335C214.424 25.4446 214.515 24.9487 214.727 24.5148C214.939 24.0809 215.212 23.74 215.576 23.5231C215.939 23.2751 216.364 23.1821 216.849 23.1821C217.485 23.1821 218 23.3681 218.394 23.74C218.788 24.1119 219 24.6078 219.061 25.2587H218.243C218.182 24.7628 218.03 24.3909 217.788 24.1739C217.546 23.957 217.243 23.833 216.818 23.833C216.303 23.833 215.909 24.0189 215.606 24.4219C215.303 24.7938 215.182 25.3516 215.182 26.0645V26.6534C215.182 27.3352 215.333 27.8621 215.606 28.265C215.879 28.6679 216.273 28.8539 216.758 28.8539C217.212 28.8539 217.546 28.7609 217.788 28.5439C218.03 28.327 218.182 27.9861 218.273 27.4592H219.061Z" fill="white"/>
<path d="M222.212 25.7548H223.727C224.364 25.7548 224.849 25.9408 225.212 26.2507C225.576 26.5606 225.758 27.0255 225.758 27.5834C225.758 28.1413 225.576 28.5752 225.212 28.9161C224.849 29.257 224.364 29.412 223.758 29.443H221.424V23.2444H222.212V25.7548ZM222.212 26.4367V28.7612H223.667C224.061 28.7612 224.364 28.6682 224.606 28.4512C224.818 28.2343 224.939 27.9553 224.939 27.5834C224.939 27.2425 224.849 26.9636 224.606 26.7466C224.394 26.5297 224.091 26.4367 223.697 26.4367H222.212Z" fill="white"/>
<path d="M229.637 26.6551H228.909V29.4445H228.122V23.2458H228.909V25.9732H229.546L231.667 23.2458H232.667L230.364 26.2522L232.849 29.4445H231.819L229.637 26.6551Z" fill="white"/>
<path d="M239.333 26.5294C239.333 27.1492 239.242 27.6761 239.03 28.11C238.818 28.5749 238.545 28.9158 238.182 29.1328C237.818 29.3807 237.394 29.5047 236.909 29.5047C236.424 29.5047 236 29.3807 235.636 29.1328C235.273 28.8848 234.97 28.5439 234.788 28.11C234.576 27.6761 234.485 27.1492 234.485 26.5603V26.1264C234.485 25.5376 234.576 25.0107 234.788 24.5458C235 24.0809 235.273 23.74 235.636 23.492C236 23.2441 236.424 23.1201 236.909 23.1201C237.394 23.1201 237.818 23.2441 238.182 23.492C238.545 23.74 238.849 24.0809 239.03 24.5458C239.242 25.0107 239.333 25.5376 239.333 26.1264V26.5294ZM238.545 26.1264C238.545 25.3826 238.394 24.8247 238.121 24.4218C237.849 24.0189 237.424 23.833 236.909 23.833C236.394 23.833 236 24.0189 235.727 24.4218C235.455 24.8247 235.303 25.3516 235.273 26.0645V26.5294C235.273 27.2422 235.424 27.8001 235.697 28.203C236 28.6059 236.394 28.8228 236.909 28.8228C237.424 28.8228 237.818 28.6369 238.121 28.234C238.394 27.8621 238.545 27.3042 238.545 26.5913V26.1264Z" fill="white"/>
<path d="M245.576 23.8967H242.667V29.4445H241.849V23.2458H245.576V23.8967Z" fill="white"/>
<path d="M252.212 26.5294C252.212 27.1492 252.121 27.6761 251.909 28.11C251.697 28.5749 251.424 28.9158 251.061 29.1328C250.697 29.3807 250.273 29.5047 249.788 29.5047C249.303 29.5047 248.879 29.3807 248.515 29.1328C248.152 28.8848 247.849 28.5439 247.667 28.11C247.455 27.6761 247.364 27.1492 247.364 26.5603V26.1264C247.364 25.5376 247.455 25.0107 247.667 24.5458C247.879 24.0809 248.152 23.74 248.515 23.492C248.879 23.2441 249.303 23.1201 249.788 23.1201C250.273 23.1201 250.697 23.2441 251.061 23.492C251.424 23.74 251.727 24.0809 251.909 24.5458C252.121 25.0107 252.212 25.5376 252.212 26.1264V26.5294ZM251.424 26.1264C251.424 25.3826 251.273 24.8247 251 24.4218C250.727 24.0189 250.303 23.833 249.788 23.833C249.273 23.833 248.879 24.0189 248.606 24.4218C248.333 24.8247 248.182 25.3516 248.152 26.0645V26.5294C248.152 27.2422 248.303 27.8001 248.576 28.203C248.879 28.6059 249.273 28.8228 249.788 28.8228C250.303 28.8228 250.697 28.6369 251 28.234C251.273 27.8621 251.424 27.3042 251.424 26.5913V26.1264Z" fill="white"/>
<path d="M130.788 41.716H130V38.8646H126.94V41.716H126.152V35.5173H126.94V38.1827H130V35.5173H130.819V41.716H130.788Z" fill="white"/>
<path d="M136.909 40.0728H134.364L133.788 41.6845H132.97L135.273 35.4858H135.97L138.303 41.6845H137.485L136.909 40.0728ZM134.636 39.422H136.697L135.667 36.5086L134.636 39.422Z" fill="white"/>
<path d="M141.212 39.267V41.6845H140.424V35.4858H142.667C143.333 35.4858 143.849 35.6718 144.212 36.0127C144.576 36.3536 144.788 36.8185 144.788 37.3764C144.788 37.9653 144.606 38.4302 144.242 38.7711C143.879 39.081 143.333 39.267 142.667 39.267H141.212ZM141.212 38.6161H142.636C143.061 38.6161 143.394 38.5232 143.606 38.3062C143.818 38.0893 143.939 37.8103 143.939 37.4074C143.939 37.0355 143.818 36.7566 143.606 36.5086C143.394 36.2607 143.061 36.1677 142.667 36.1677H141.212V38.6161Z" fill="white"/>
<path d="M151.727 38.8035C151.727 39.4234 151.637 39.9503 151.424 40.3842C151.212 40.8491 150.94 41.19 150.576 41.4069C150.212 41.6549 149.788 41.7789 149.303 41.7789C148.818 41.7789 148.394 41.6549 148.03 41.4069C147.667 41.159 147.364 40.8181 147.182 40.3842C146.97 39.9503 146.879 39.4234 146.879 38.8345V38.4006C146.879 37.8117 146.97 37.2849 147.182 36.82C147.394 36.3551 147.667 36.0141 148.03 35.7662C148.394 35.5183 148.818 35.3943 149.303 35.3943C149.788 35.3943 150.212 35.5183 150.576 35.7662C150.94 36.0141 151.243 36.3551 151.424 36.82C151.637 37.2849 151.727 37.8117 151.727 38.4006V38.8035ZM150.94 38.4006C150.94 37.6568 150.788 37.0989 150.515 36.696C150.212 36.2931 149.818 36.1071 149.303 36.1071C148.788 36.1071 148.394 36.2931 148.121 36.696C147.849 37.0989 147.697 37.6258 147.667 38.3386V38.8035C147.667 39.5164 147.818 40.0742 148.091 40.4771C148.394 40.8801 148.788 41.097 149.303 41.097C149.818 41.097 150.212 40.911 150.515 40.5081C150.788 40.1362 150.94 39.5783 150.94 38.8655V38.4006Z" fill="white"/>
<path d="M159.515 43.2341H158.727V41.7154H154.364V43.2341H153.576V41.0336H154.061C154.333 40.7237 154.515 40.3208 154.697 39.8249C154.848 39.329 154.939 38.7711 155 38.1512L155.121 35.4858H158.758V41.0026H159.545L159.515 43.2341ZM154.97 41.0336H157.939V36.1677H155.879L155.788 37.9963C155.757 38.7091 155.667 39.329 155.515 39.8249C155.364 40.3208 155.182 40.7237 154.97 41.0336Z" fill="white"/>
<path d="M163.849 39.1123L165.243 35.5171H166.182L164.03 40.6929C163.879 41.0339 163.758 41.2508 163.636 41.4058C163.515 41.5607 163.364 41.6537 163.212 41.7157C163.03 41.7777 162.849 41.8087 162.576 41.8087C162.364 41.8087 162.212 41.8087 162.152 41.7777L162.182 41.1268L162.576 41.1578C162.879 41.1578 163.091 41.0029 163.212 40.7239L163.303 40.507L163.455 40.1351L161.394 35.5481H162.303L163.849 39.1123Z" fill="white"/>
<path d="M112.757 0.0622559H110.667V53.8352H112.757V0.0622559Z" fill="#41B6E6"/>
<path d="M85.6061 32.2638V0H10.0909V32.2638H0V43.0494H21.2424V10.7856H42.2424V43.0494H31.3333V53.8349H64.3636V43.0494H53.4545V10.7856H74.4242V43.0494H95.697V32.2638H85.6061Z" fill="#DAAA00"/>
</svg>
