<svg width="32" height="32" viewBox="0 0 32 32" fill="none" xmlns="http://www.w3.org/2000/svg">
<path fill-rule="evenodd" clip-rule="evenodd" d="M26 6H6V26H7.57834L21.2931 11.9414L26 16.2343V6ZM26 18.9412L21.3742 14.7223L10.3724 26H26V18.9412ZM4 4V28H28V4H4ZM11.333 10.332C10.7807 10.332 10.333 10.7797 10.333 11.332C10.333 11.8843 10.7807 12.332 11.333 12.332C11.8853 12.332 12.333 11.8843 12.333 11.332C12.333 10.7797 11.8853 10.332 11.333 10.332ZM8.33301 11.332C8.33301 9.67518 9.67615 8.33203 11.333 8.33203C12.9899 8.33203 14.333 9.67518 14.333 11.332C14.333 12.9889 12.9899 14.332 11.333 14.332C9.67615 14.332 8.33301 12.9889 8.33301 11.332Z" fill="white"/>
</svg>
