<svg width="14" height="14" viewBox="0 0 14 14" fill="none" xmlns="http://www.w3.org/2000/svg">
<path fill-rule="evenodd" clip-rule="evenodd" d="M13.2455 0.752886C13.4733 0.980691 13.4733 1.35004 13.2455 1.57784L6.82882 7.99451C6.60101 8.22232 6.23167 8.22232 6.00386 7.99451C5.77606 7.7667 5.77606 7.39736 6.00386 7.16955L12.4205 0.752886C12.6483 0.52508 13.0177 0.52508 13.2455 0.752886Z" fill="#41B6E6"/>
<path fill-rule="evenodd" clip-rule="evenodd" d="M13.2455 0.752902C13.4039 0.911357 13.4576 1.14658 13.3836 1.35809L9.30026 13.0248C9.22125 13.2505 9.01243 13.4051 8.77346 13.4149C8.53448 13.4246 8.31376 13.2875 8.21662 13.069L5.97441 8.02398L0.92943 5.78177C0.710866 5.68463 0.573746 5.46391 0.583496 5.22494C0.593245 4.98596 0.747889 4.77714 0.97364 4.69813L12.6403 0.614797C12.8518 0.540769 13.087 0.594446 13.2455 0.752902ZM2.7478 5.31323L6.65326 7.04899C6.78523 7.10764 6.89075 7.21316 6.9494 7.34513L8.68516 11.2506L11.8822 2.1162L2.7478 5.31323Z" fill="#41B6E6"/>
</svg>
