<svg width="14" height="14" viewBox="0 0 14 14" fill="none" xmlns="http://www.w3.org/2000/svg">
<g clip-path="url(#clip0)">
<path fill-rule="evenodd" clip-rule="evenodd" d="M8.47326 1.37103C9.08506 1.13752 9.75382 1.09754 10.3891 1.25649C10.8943 1.38289 11.3589 1.63025 11.7441 1.97473C12.2178 1.8006 12.6672 1.56492 13.0805 1.27341L13.4167 1.75009L13.9835 1.88812C13.7837 2.70859 13.3832 3.46483 12.8199 4.08982C12.8286 4.18397 12.8331 4.27851 12.8334 4.37316L12.8334 4.37509C12.8334 7.93338 11.1202 10.5439 8.65955 11.8536C6.2131 13.1557 3.0864 13.1413 0.300102 11.5933C0.063962 11.4622 -0.0512147 11.186 0.0217303 10.9259C0.0946753 10.6658 0.336657 10.4898 0.606578 10.5005C1.59055 10.5397 2.56461 10.344 3.45032 9.93599C2.57348 9.39492 1.94222 8.75256 1.50334 8.0596C0.917891 7.1352 0.696883 6.15595 0.656912 5.27658C0.617056 4.39975 0.756339 3.61028 0.902756 3.04414C0.976315 2.75971 1.05264 2.52796 1.11147 2.36523C1.14092 2.28377 1.16609 2.21933 1.18448 2.17393C1.19368 2.15122 1.2012 2.13325 1.20672 2.12027L1.21347 2.10456L1.21519 2.10062C1.2193 2.09118 1.22367 2.08182 1.22831 2.07255L1.75006 2.33342L2.22743 1.99817C2.7615 2.75865 3.47535 3.37525 4.30541 3.79305C4.96566 4.12537 5.68313 4.32371 6.41656 4.37883C6.41225 3.73153 6.60457 3.09797 6.96833 2.56212C7.33614 2.02032 7.86146 1.60455 8.47326 1.37103ZM1.9861 3.52553C1.87895 3.99299 1.79338 4.58581 1.82237 5.2236C1.85532 5.94839 2.03535 6.71914 2.48896 7.43537C2.94023 8.14789 3.68442 8.84182 4.90364 9.3837C5.09719 9.46972 5.22891 9.6539 5.24775 9.86487C5.26659 10.0758 5.16959 10.2804 4.99434 10.3994C4.3463 10.8393 3.63668 11.1702 2.89345 11.3842C4.74271 11.8554 6.59581 11.6304 8.1114 10.8237C10.1714 9.72727 11.6664 7.52558 11.6667 4.37606C11.6662 4.25 11.6541 4.12426 11.6304 4.00044C11.5939 3.80919 11.6552 3.61231 11.7938 3.47558C11.9237 3.34743 12.0441 3.21085 12.1542 3.06696C12.0221 3.1157 11.8884 3.16046 11.7533 3.20115C11.5336 3.2673 11.2955 3.19852 11.1449 3.02539C10.872 2.71161 10.5093 2.48921 10.1059 2.38827C9.70249 2.28733 9.2778 2.31272 8.88928 2.461C8.50077 2.60929 8.16717 2.87333 7.9336 3.21739C7.70003 3.56145 7.57777 3.96895 7.58334 4.38477L7.58344 4.39259H7.58339V4.97592C7.58339 5.2922 7.33135 5.55086 7.01518 5.55906C5.89388 5.58813 4.7828 5.33945 3.78088 4.83515C3.11264 4.4988 2.50679 4.0557 1.9861 3.52553Z" fill="#41B6E6"/>
</g>
<defs>
<clipPath id="clip0">
<rect width="14" height="14" fill="white"/>
</clipPath>
</defs>
</svg>
