<svg width="14" height="14" viewBox="0 0 14 14" fill="none" xmlns="http://www.w3.org/2000/svg">
<path fill-rule="evenodd" clip-rule="evenodd" d="M6.27513 1.60716C6.9315 0.95078 7.82174 0.582031 8.75 0.582031H10.5C10.8222 0.582031 11.0833 0.843198 11.0833 1.16536V3.4987C11.0833 3.82086 10.8222 4.08203 10.5 4.08203H8.75V5.2487H10.5C10.6796 5.2487 10.8492 5.33146 10.9598 5.47304C11.0703 5.61463 11.1095 5.79924 11.0659 5.97351L10.4826 8.30684C10.4177 8.56652 10.1843 8.7487 9.91667 8.7487H8.75V12.832C8.75 13.1542 8.48883 13.4154 8.16667 13.4154H5.83333C5.51117 13.4154 5.25 13.1542 5.25 12.832V8.7487H4.08333C3.76117 8.7487 3.5 8.48753 3.5 8.16536V5.83203C3.5 5.50986 3.76117 5.2487 4.08333 5.2487H5.25V4.08203C5.25 3.15377 5.61875 2.26353 6.27513 1.60716ZM8.75 1.7487C8.13116 1.7487 7.53767 1.99453 7.10008 2.43212C6.6625 2.8697 6.41667 3.46319 6.41667 4.08203V5.83203C6.41667 6.1542 6.1555 6.41536 5.83333 6.41536H4.66667V7.58203H5.83333C6.1555 7.58203 6.41667 7.8432 6.41667 8.16536V12.2487H7.58333V8.16536C7.58333 7.8432 7.8445 7.58203 8.16667 7.58203H9.46121L9.75288 6.41536H8.16667C7.8445 6.41536 7.58333 6.1542 7.58333 5.83203V4.08203C7.58333 3.77261 7.70625 3.47587 7.92504 3.25707C8.14383 3.03828 8.44058 2.91536 8.75 2.91536H9.91667V1.7487H8.75Z" fill="#41B6E6"/>
</svg>
