<svg width="32" height="32" viewBox="0 0 32 32" fill="none" xmlns="http://www.w3.org/2000/svg">
<path fill-rule="evenodd" clip-rule="evenodd" d="M5.40695 2.74069C6.09458 2.05306 7.02721 1.66675 7.99967 1.66675H19.7472L27.6663 9.58587V26.6667C27.6663 27.6392 27.28 28.5718 26.5924 29.2595C25.9048 29.9471 24.9721 30.3334 23.9997 30.3334H7.99967C7.02721 30.3334 6.09458 29.9471 5.40695 29.2595C4.71932 28.5718 4.33301 27.6392 4.33301 26.6667V5.33341C4.33301 4.36095 4.71932 3.42832 5.40695 2.74069ZM7.99967 3.66675C7.55765 3.66675 7.13372 3.84234 6.82116 4.1549C6.5086 4.46746 6.33301 4.89139 6.33301 5.33341V26.6667C6.33301 27.1088 6.5086 27.5327 6.82116 27.8453C7.13372 28.1578 7.55765 28.3334 7.99967 28.3334H23.9997C24.4417 28.3334 24.8656 28.1578 25.1782 27.8453C25.4907 27.5327 25.6663 27.1088 25.6663 26.6667V11.6667H17.6663V3.66675H7.99967ZM19.6663 4.41429L24.9188 9.66675H19.6663V4.41429ZM21.333 16.3334H10.6663V18.3334H21.333V16.3334ZM10.6663 21.6667H21.333V23.6667H10.6663V21.6667ZM13.333 11.0001H10.6663V13.0001H13.333V11.0001Z" fill="#B2B4B2"/>
</svg>
