<svg width="14" height="14" viewBox="0 0 14 14" fill="none" xmlns="http://www.w3.org/2000/svg">
<path fill-rule="evenodd" clip-rule="evenodd" d="M4.08301 1.7487C2.79434 1.7487 1.74967 2.79337 1.74967 4.08203V9.91536C1.74967 11.204 2.79434 12.2487 4.08301 12.2487H9.91634C11.205 12.2487 12.2497 11.204 12.2497 9.91536V4.08203C12.2497 2.79337 11.205 1.7487 9.91634 1.7487H4.08301ZM0.583008 4.08203C0.583008 2.14903 2.15001 0.582031 4.08301 0.582031H9.91634C11.8493 0.582031 13.4163 2.14903 13.4163 4.08203V9.91536C13.4163 11.8484 11.8493 13.4154 9.91634 13.4154H4.08301C2.15001 13.4154 0.583008 11.8484 0.583008 9.91536V4.08203Z" fill="#41B6E6"/>
<path fill-rule="evenodd" clip-rule="evenodd" d="M7.28225 5.2437C6.91814 5.18971 6.54628 5.2519 6.21956 5.42143C5.89283 5.59097 5.62788 5.8592 5.4624 6.18799C5.29691 6.51678 5.2393 6.88938 5.29778 7.2528C5.35626 7.61621 5.52784 7.95193 5.78812 8.21221C6.0484 8.47249 6.38412 8.64407 6.74753 8.70255C7.11095 8.76103 7.48355 8.70342 7.81234 8.53794C8.14113 8.37245 8.40937 8.1075 8.5789 7.78077C8.74843 7.45405 8.81062 7.08219 8.75663 6.71808C8.70155 6.34667 8.52849 6.00283 8.26299 5.73734C7.9975 5.47184 7.65366 5.29878 7.28225 5.2437ZM5.68223 4.38587C6.22677 4.10332 6.84654 3.99967 7.45338 4.08966C8.07239 4.18145 8.64546 4.46989 9.08795 4.91238C9.53044 5.35487 9.81888 5.92794 9.91067 6.54695C10.0007 7.15379 9.89701 7.77356 9.61446 8.3181C9.3319 8.86265 8.88484 9.30423 8.33686 9.58004C7.78888 9.85586 7.16788 9.95186 6.56219 9.8544C5.9565 9.75693 5.39696 9.47097 4.96316 9.03717C4.52936 8.60337 4.2434 8.04384 4.14593 7.43815C4.04847 6.83245 4.14447 6.21145 4.42029 5.66347C4.6961 5.11549 5.13769 4.66843 5.68223 4.38587Z" fill="#41B6E6"/>
<path fill-rule="evenodd" clip-rule="evenodd" d="M9.625 3.79036C9.625 3.4682 9.88617 3.20703 10.2083 3.20703H10.2142C10.5363 3.20703 10.7975 3.4682 10.7975 3.79036C10.7975 4.11253 10.5363 4.3737 10.2142 4.3737H10.2083C9.88617 4.3737 9.625 4.11253 9.625 3.79036Z" fill="#41B6E6"/>
</svg>
