<svg width="18" height="18" viewBox="0 0 18 18" fill="none" xmlns="http://www.w3.org/2000/svg">
<path fill-rule="evenodd" clip-rule="evenodd" d="M3 8.25C3 5.3505 5.3505 3 8.25 3C11.1495 3 13.5 5.3505 13.5 8.25C13.5 9.66267 12.942 10.945 12.0345 11.8887C12.0077 11.9091 11.9819 11.9315 11.9575 11.956C11.9329 11.9805 11.9104 12.0064 11.89 12.0332C10.9462 12.9415 9.66332 13.5 8.25 13.5C5.3505 13.5 3 11.1495 3 8.25ZM12.4641 13.5233C11.3092 14.4474 9.84414 15 8.25 15C4.52208 15 1.5 11.9779 1.5 8.25C1.5 4.52208 4.52208 1.5 8.25 1.5C11.9779 1.5 15 4.52208 15 8.25C15 9.84339 14.4479 11.3078 13.5246 12.4625L16.2806 15.2185C16.5735 15.5114 16.5735 15.9863 16.2806 16.2792C15.9877 16.5721 15.5129 16.5721 15.22 16.2792L12.4641 13.5233Z" fill="#7084AD"/>
</svg>
